# xmcd
#
# Track frame offsets: 
#        150
#        14882
#        27697
#        41815
#        54240
#        69120
#        87422
#        100227
#        111485
#        123357
#
# Disc length: 1820 seconds
#
# Revision: 2
# Processed by: cddbd v1.5.2PL0 Copyright (c) Steve Scherf et al.
# Submitted via: ExactAudioCopy v1.1
#
DISCID=8b071a0a
DTITLE=Asleep At the Wheel - Swing Time
DYEAR=1900
DGENRE=
TTITLE0=Choo Choo Ch'Boogie
TTITLE1=Don't Ask Me Why (I'm Going to Texas)
TTITLE2=House of Blue Lights
TTITLE3=Miss Molly
TTITLE4=Boogie Back to Texas
TTITLE5=San Antonio Rose
TTITLE6=Blues Stay Away From Me
TTITLE7=Walking the Floor over You
TTITLE8=Way down Texas Way
TTITLE9=HOT ROD LINCOLN
EXTD=
EXTT0=
EXTT1=
EXTT2=
EXTT3=
EXTT4=
EXTT5=
EXTT6=
EXTT7=
EXTT8=
EXTT9=
PLAYORDER=
